<svg width="1920" height="2919" viewBox="0 0 1920 2919" fill="none" xmlns="http://www.w3.org/2000/svg">
<g style="mix-blend-mode:multiply">
<path d="M477.182 2621.08C477.182 2785.1 353.977 2918.16 192.231 2918.16C30.4848 2918.16 -92.7197 2785.1 -92.7197 2621.08C-92.7197 2457.06 30.4848 2324 192.231 2324C353.977 2324 477.182 2457.06 477.182 2621.08ZM420.901 2621.08C420.901 2459.32 325.111 2332.06 192.07 2332.06C59.0282 2332.06 -36.6004 2459.32 -36.6004 2621.08C-36.6004 2782.85 59.1895 2910.1 192.07 2910.1C325.273 2909.94 420.901 2782.85 420.901 2621.08Z" fill="#E9EAE1"/>
</g>
<g style="mix-blend-mode:multiply">
<path d="M885.176 2396.25H881.144C871.791 2375.93 857.116 2340.13 812.93 2340.13H700.53V2885.91C700.53 2898 708.593 2905.9 724.558 2905.9V2909.94H628.285V2905.9C644.411 2905.9 652.313 2897.84 652.313 2885.91V2340.13H539.913C495.727 2340.13 480.891 2375.93 471.699 2396.25H467.829L491.857 2332.06H861.148L885.176 2396.25Z" fill="#E9EAE1"/>
</g>
<g style="mix-blend-mode:multiply">
<path d="M1445.4 2621.08C1445.4 2785.1 1322.2 2918.16 1160.45 2918.16C998.705 2918.16 875.5 2785.1 875.5 2621.08C875.5 2457.06 998.705 2324 1160.45 2324C1322.2 2324 1445.4 2457.06 1445.4 2621.08ZM1389.28 2621.08C1389.28 2459.32 1293.49 2332.06 1160.45 2332.06C1027.41 2332.06 931.781 2459.32 931.781 2621.08C931.781 2782.85 1027.57 2910.1 1160.45 2910.1C1293.49 2909.94 1389.28 2782.85 1389.28 2621.08Z" fill="#E9EAE1"/>
</g>
<g style="mix-blend-mode:multiply">
<path d="M2070.45 2905.9V2909.94H1974.18V2905.9C1990.31 2905.9 1996.92 2897.68 1994.98 2885.91L1923.06 2368.19L1757.44 2910.1H1749.38L1568.77 2368.19L1511.2 2885.91C1509.58 2898 1516.52 2905.9 1532.64 2905.9V2909.94H1476.53V2905.9C1492.65 2905.9 1502 2898 1503.29 2885.91L1562.16 2356.1C1563.77 2344 1556.83 2336.1 1540.71 2336.1V2332.06H1604.89L1774.22 2828.49L1925.8 2332.06H1989.99V2336.1C1973.86 2336.1 1967.25 2344.16 1969.18 2356.1L2042.72 2885.91C2044.65 2898 2054.33 2905.9 2070.45 2905.9Z" fill="#E9EAE1"/>
</g>
</svg>
